ISO-10303-21;
HEADER;
FILE_DESCRIPTION (( 'STEP AP214' ),
    '1' );
FILE_NAME ('lens.STEP',
    '2026-08-06T09:45:05',
    ( '' ),
    ( '' ),
    'SwSTEP 2.0',
    'SolidWorks 2018',
    '' );
FILE_SCHEMA (( 'AUTOMOTIVE_DESIGN' ));
ENDSEC;

DATA;
#1 = CARTESIAN_POINT ( 'NONE',  ( 28.84999999999998721, 34.96643032967499209, -37.79485745442079292 ) ) ;
#2 = CARTESIAN_POINT ( 'NONE',  ( 30.39999999999999858, 35.70889244992085310, -37.12310601229355456 ) ) ;
#3 = ORIENTED_EDGE ( 'NONE', *, *, #547, .T. ) ;
#4 = EDGE_LOOP ( 'NONE', ( #766, #521, #653, #665 ) ) ;
#5 = AXIS2_PLACEMENT_3D ( 'NONE', #410, #283, #214 ) ;
#6 = PLANE ( 'NONE',  #384 ) ;
#7 = CARTESIAN_POINT ( 'NONE',  ( -30.39999999999999858, 4.914392129246561325, -6.328605691619560325 ) ) ;
#8 = PRESENTATION_STYLE_ASSIGNMENT (( #70 ) ) ;
#9 = DIRECTION ( 'NONE',  ( 0.7071067811865464625, -0.5000000000000007772, -0.5000000000000007772 ) ) ;
#10 = ADVANCED_FACE ( 'NONE', ( #812 ), #439, .T. ) ;
#11 = CARTESIAN_POINT ( 'NONE',  ( 26.84999999999998721, 35.24927304214960344, -37.51201474194618868 ) ) ;
#12 = VERTEX_POINT ( 'NONE', #234 ) ;
#13 = CARTESIAN_POINT ( 'NONE',  ( 30.39999999999999858, 37.51201474194658658, -38.92622830431926673 ) ) ;
#14 = ORIENTED_EDGE ( 'NONE', *, *, #271, .F. ) ;
#15 = ORIENTED_EDGE ( 'NONE', *, *, #125, .F. ) ;
#16 = DIRECTION ( 'NONE',  ( 0.000000000000000000, -0.7071067811865441310, -0.7071067811865509034 ) ) ;
#17 = CYLINDRICAL_SURFACE ( 'NONE', #250, 5.950000000000014388 ) ;
#18 = COLOUR_RGB ( '',0.7921568627450980005, 0.8196078431372548767, 0.9333333333333333481 ) ;
#19 = CARTESIAN_POINT ( 'NONE',  ( 36.35000000000000142, 9.121677477306535664, -10.53589103967949647 ) ) ;
#20 = EDGE_CURVE ( 'NONE', #197, #534, #381, .T. ) ;
#21 = AXIS2_PLACEMENT_3D ( 'NONE', #356, #154, #601 ) ;
#22 = DIRECTION ( 'NONE',  ( -0.000000000000000000, -0.7071067811865441310, -0.7071067811865510144 ) ) ;
#23 = AXIS2_PLACEMENT_3D ( 'NONE', #688, #320, #755 ) ;
#24 = VERTEX_POINT ( 'NONE', #229 ) ;
#25 = DIRECTION ( 'NONE',  ( 0.000000000000000000, -0.7071067811865510144, 0.7071067811865441310 ) ) ;
#26 = EDGE_CURVE ( 'NONE', #770, #430, #528, .T. ) ;
#27 = FACE_BOUND ( 'NONE', #608, .T. ) ;
#28 = VECTOR ( 'NONE', #277, 1000.000000000000114 ) ;
#29 = ORIENTED_EDGE ( 'NONE', *, *, #235, .T. ) ;
#30 = DIRECTION ( 'NONE',  ( 0.000000000000000000, 0.000000000000000000, 1.000000000000000000 ) ) ;
#31 = VERTEX_POINT ( 'NONE', #502 ) ;
#32 = DIRECTION ( 'NONE',  ( -0.000000000000000000, -0.7071067811865441310, -0.7071067811865510144 ) ) ;
#33 = CONICAL_SURFACE ( 'NONE', #574, 1.999999999999997780, 0.7853981633974449483 ) ;
#34 = EDGE_CURVE ( 'NONE', #61, #228, #341, .T. ) ;
#35 = LINE ( 'NONE', #813, #258 ) ;
#36 = VECTOR ( 'NONE', #741, 1000.000000000000000 ) ;
#37 = ORIENTED_EDGE ( 'NONE', *, *, #495, .F. ) ;
#38 = EDGE_CURVE ( 'NONE', #720, #31, #602, .T. ) ;
#39 = EDGE_CURVE ( 'NONE', #427, #707, #270, .T. ) ;
#40 = CARTESIAN_POINT ( 'NONE',  ( 30.39999999999999858, 35.00178566873431407, -37.83021279348010779 ) ) ;
#41 =( NAMED_UNIT ( * ) PLANE_ANGLE_UNIT ( ) SI_UNIT ( $, .RADIAN. ) );
#42 = ORIENTED_EDGE ( 'NONE', *, *, #476, .F. ) ;
#43 = ORIENTED_EDGE ( 'NONE', *, *, #159, .T. ) ;
#44 = VECTOR ( 'NONE', #393, 1000.000000000000000 ) ;
#45 = CYLINDRICAL_SURFACE ( 'NONE', #21, 2.000000000000000444 ) ;
#46 = DIRECTION ( 'NONE',  ( 0.000000000000000000, -8.177564888977817121E-15, 1.000000000000000000 ) ) ;
#47 = AXIS2_PLACEMENT_3D ( 'NONE', #146, #775, #148 ) ;
#48 = DIRECTION ( 'NONE',  ( 0.000000000000000000, 0.7071067811865475727, 0.7071067811865475727 ) ) ;
#49 = ORIENTED_EDGE ( 'NONE', *, *, #127, .T. ) ;
#50 = APPLICATION_CONTEXT ( 'automotive_design' ) ;
#51 = CARTESIAN_POINT ( 'NONE',  ( -28.85000000000000497, 35.67353711086153822, -37.08775067323423968 ) ) ;
#52 = ORIENTED_EDGE ( 'NONE', *, *, #803, .T. ) ;
#53 = EDGE_CURVE ( 'NONE', #430, #228, #201, .T. ) ;
#54 = VECTOR ( 'NONE', #699, 1000.000000000000000 ) ;
#55 = FACE_OUTER_BOUND ( 'NONE', #740, .T. ) ;
#56 = CARTESIAN_POINT ( 'NONE',  ( 26.84999999999998721, 35.24927304214960344, -37.51201474194618868 ) ) ;
#57 = VECTOR ( 'NONE', #110, 1000.000000000000000 ) ;
#58 = CARTESIAN_POINT ( 'NONE',  ( 29.45000000000000284, 9.121677477306535664, -10.53589103967949647 ) ) ;
#59 = ORIENTED_EDGE ( 'NONE', *, *, #73, .T. ) ;
#60 = DIRECTION ( 'NONE',  ( 0.000000000000000000, 0.7071067811865441310, 0.7071067811865510144 ) ) ;
#61 = VERTEX_POINT ( 'NONE', #555 ) ;
#62 = ORIENTED_EDGE ( 'NONE', *, *, #205, .F. ) ;
#63 = AXIS2_PLACEMENT_3D ( 'NONE', #164, #299, #438 ) ;
#64 = AXIS2_PLACEMENT_3D ( 'NONE', #345, #719, #715 ) ;
#65 = ORIENTED_EDGE ( 'NONE', *, *, #631, .T. ) ;
#66 = DIRECTION ( 'NONE',  ( 0.000000000000000000, -0.7071067811865526798, 0.7071067811865423547 ) ) ;
#67 = DIRECTION ( 'NONE',  ( -0.000000000000000000, -0.7071067811865441310, -0.7071067811865510144 ) ) ;
#68 = AXIS2_PLACEMENT_3D ( 'NONE', #445, #253, #316 ) ;
#69 = CYLINDRICAL_SURFACE ( 'NONE', #710, 5.950000000000003730 ) ;
#70 = SURFACE_STYLE_USAGE ( .BOTH. , #814 ) ;
#71 = ADVANCED_FACE ( 'NONE', ( #724 ), #583, .F. ) ;
#72 = CIRCLE ( 'NONE', #169, 1.999999999999997780 ) ;
#73 = EDGE_CURVE ( 'NONE', #430, #725, #405, .T. ) ;
#74 = ADVANCED_FACE ( 'NONE', ( #358 ), #442, .F. ) ;
#75 = CARTESIAN_POINT ( 'NONE',  ( 29.44999999999999929, 35.67353711086153822, -37.08775067323423968 ) ) ;
#76 = VERTEX_POINT ( 'NONE', #118 ) ;
#77 = DIRECTION ( 'NONE',  ( 0.000000000000000000, -0.7071067811865501263, 0.7071067811865449082 ) ) ;
#78 = CARTESIAN_POINT ( 'NONE',  ( -26.84999999999999787, 37.51201474194659369, -38.92622830431927383 ) ) ;
#79 = ORIENTED_EDGE ( 'NONE', *, *, #297, .T. ) ;
#80 = FACE_OUTER_BOUND ( 'NONE', #365, .T. ) ;
#81 = VECTOR ( 'NONE', #744, 1000.000000000000000 ) ;
#82 = EDGE_CURVE ( 'NONE', #725, #607, #423, .T. ) ;
#83 = VERTEX_POINT ( 'NONE', #237 ) ;
#84 = DIRECTION ( 'NONE',  ( 1.845450506358305079E-16, -0.7071067811865507924, 0.7071067811865441310 ) ) ;
#85 = AXIS2_PLACEMENT_3D ( 'NONE', #236, #546, #429 ) ;
#86 = DIRECTION ( 'NONE',  ( 0.000000000000000000, -1.000000000000000000, 0.000000000000000000 ) ) ;
#87 = VERTEX_POINT ( 'NONE', #302 ) ;
#88 = VERTEX_POINT ( 'NONE', #672 ) ;
#89 = DIRECTION ( 'NONE',  ( 0.000000000000000000, -0.7071067811865506814, 0.7071067811865442421 ) ) ;
#90 = EDGE_CURVE ( 'NONE', #443, #633, #563, .T. ) ;
#91 = ORIENTED_EDGE ( 'NONE', *, *, #155, .T. ) ;
#92 = VECTOR ( 'NONE', #243, 1000.000000000000000 ) ;
#93 = UNCERTAINTY_MEASURE_WITH_UNIT (LENGTH_MEASURE( 1.000000000000000082E-05 ), #671, 'distance_accuracy_value', 'NONE');
#94 = FACE_OUTER_BOUND ( 'NONE', #698, .T. ) ;
#95 = CARTESIAN_POINT ( 'NONE',  ( 26.84999999999999787, 7.742819253992764494, -9.157032816365736849 ) ) ;
#96 = ORIENTED_EDGE ( 'NONE', *, *, #444, .F. ) ;
#97 = CARTESIAN_POINT ( 'NONE',  ( 36.35000000000000142, 9.121677477306535664, -10.53589103967949647 ) ) ;
#98 = VECTOR ( 'NONE', #810, 1000.000000000000114 ) ;
#99 = PRESENTATION_STYLE_ASSIGNMENT (( #238 ) ) ;
#100 = EDGE_CURVE ( 'NONE', #385, #12, #706, .T. ) ;
#101 = VECTOR ( 'NONE', #46, 1000.000000000000000 ) ;
#102 = ORIENTED_EDGE ( 'NONE', *, *, #371, .F. ) ;
#103 = VERTEX_POINT ( 'NONE', #372 ) ;
#104 = AXIS2_PLACEMENT_3D ( 'NONE', #656, #291, #486 ) ;
#105 = CIRCLE ( 'NONE', #106, 2.000000000000002665 ) ;
#106 = AXIS2_PLACEMENT_3D ( 'NONE', #300, #48, #496 ) ;
#107 = APPLICATION_PROTOCOL_DEFINITION ( 'draft international standard', 'automotive_design', 1998, #50 ) ;
#108 = CARTESIAN_POINT ( 'NONE',  ( -26.84999999999999787, 36.38064389204809146, -39.20907101679387807 ) ) ;
#109 = EDGE_CURVE ( 'NONE', #24, #197, #223, .T. ) ;
#110 = DIRECTION ( 'NONE',  ( 0.000000000000000000, -1.000000000000000000, 0.000000000000000000 ) ) ;
#111 = MANIFOLD_SOLID_BREP ( 'µ¹½Ç1', #311 ) ;
#112 = CARTESIAN_POINT ( 'NONE',  ( -26.84999999999999432, 7.318555185280831488, -9.581296885077675185 ) ) ;
#113 = ORIENTED_EDGE ( 'NONE', *, *, #109, .T. ) ;
#114 = VERTEX_POINT ( 'NONE', #122 ) ;
#115 = DIRECTION ( 'NONE',  ( 1.000000000000000000, 0.000000000000000000, 0.000000000000000000 ) ) ;
#116 = EDGE_LOOP ( 'NONE', ( #346, #386, #285, #252 ) ) ;
#117 = CARTESIAN_POINT ( 'NONE',  ( -30.39999999999999858, 4.914392129246561325, -6.328605691619560325 ) ) ;
#118 = CARTESIAN_POINT ( 'NONE',  ( -29.45000000000000639, 9.157032816365866523, -10.57124637873882556 ) ) ;
#119 = AXIS2_PLACEMENT_3D ( 'NONE', #746, #60, #318 ) ;
#120 = ORIENTED_EDGE ( 'NONE', *, *, #297, .F. ) ;
#121 = DIRECTION ( 'NONE',  ( 0.000000000000000000, 0.7071067811865510144, -0.7071067811865440200 ) ) ;
#122 = CARTESIAN_POINT ( 'NONE',  ( 30.39999999999999858, 4.914392129246561325, -6.328605691619560325 ) ) ;
#123 = AXIS2_PLACEMENT_3D ( 'NONE', #624, #571, #131 ) ;
#124 = EDGE_LOOP ( 'NONE', ( #249, #96, #471, #683 ) ) ;
#125 = EDGE_CURVE ( 'NONE', #12, #103, #420, .T. ) ;
#126 =( LENGTH_UNIT ( ) NAMED_UNIT ( * ) SI_UNIT ( .MILLI., .METRE. ) );
#127 = EDGE_CURVE ( 'NONE', #607, #24, #149, .T. ) ;
#128 = CYLINDRICAL_SURFACE ( 'NONE', #713, 5.949999999999999289 ) ;
#129 = CARTESIAN_POINT ( 'NONE',  ( -26.84999999999999432, 7.318555185280822606, -8.732768747653800290 ) ) ;
#130 = CARTESIAN_POINT ( 'NONE',  ( -28.84999999999999432, 8.732768747653922858, -10.99551044745077277 ) ) ;
#131 = DIRECTION ( 'NONE',  ( 0.000000000000000000, 0.7071067811865441310, 0.7071067811865510144 ) ) ;
#132 = DIRECTION ( 'NONE',  ( 0.000000000000000000, 0.7071067811865509034, -0.7071067811865441310 ) ) ;
#133 = DIRECTION ( 'NONE',  ( 0.000000000000000000, 0.7071067811865510144, -0.7071067811865441310 ) ) ;
#134 = VERTEX_POINT ( 'NONE', #130 ) ;
#135 = ADVANCED_FACE ( 'NONE', ( #580 ), #519, .F. ) ;
#136 = DIRECTION ( 'NONE',  ( -0.000000000000000000, -0.7071067811865441310, -0.7071067811865510144 ) ) ;
#137 = EDGE_CURVE ( 'NONE', #570, #76, #733, .T. ) ;
#138 = ORIENTED_EDGE ( 'NONE', *, *, #588, .F. ) ;
#139 = EDGE_LOOP ( 'NONE', ( #516, #544, #353, #700 ) ) ;
#140 = DIRECTION ( 'NONE',  ( -0.000000000000000000, -0.7071067811865441310, -0.7071067811865510144 ) ) ;
#141 = CARTESIAN_POINT ( 'NONE',  ( 26.84999999999998721, 35.67353711086153822, -37.08775067323423968 ) ) ;
#142 = LINE ( 'NONE', #354, #573 ) ;
#143 = AXIS2_PLACEMENT_3D ( 'NONE', #313, #449, #572 ) ;
#144 = DIRECTION ( 'NONE',  ( -0.000000000000000000, -0.7071067811865441310, -0.7071067811865510144 ) ) ;
#145 = PRESENTATION_LAYER_ASSIGNMENT (  '', '', ( #590 ) ) ;
#146 = CARTESIAN_POINT ( 'NONE',  ( -26.84999999999999432, 8.449926035179322170, -11.27835315992537701 ) ) ;
#147 = EDGE_CURVE ( 'NONE', #641, #607, #679, .T. ) ;
#148 = DIRECTION ( 'NONE',  ( 0.000000000000000000, 0.7071067811865510144, -0.7071067811865440200 ) ) ;
#149 = LINE ( 'NONE', #459, #395 ) ;
#150 = LINE ( 'NONE', #678, #538 ) ;
#151 = DIRECTION ( 'NONE',  ( 0.000000000000000000, 0.7071067811865441310, 0.7071067811865510144 ) ) ;
#152 = ORIENTED_EDGE ( 'NONE', *, *, #161, .F. ) ;
#153 = ORIENTED_EDGE ( 'NONE', *, *, #565, .T. ) ;
#154 = DIRECTION ( 'NONE',  ( -0.000000000000000000, -0.7071067811865441310, -0.7071067811865510144 ) ) ;
#155 = EDGE_CURVE ( 'NONE', #770, #570, #761, .T. ) ;
#156 = FACE_OUTER_BOUND ( 'NONE', #493, .T. ) ;
#157 = AXIS2_PLACEMENT_3D ( 'NONE', #183, #185, #809 ) ;
#158 = LINE ( 'NONE', #219, #789 ) ;
#159 = EDGE_CURVE ( 'NONE', #770, #730, #348, .T. ) ;
#160 = VECTOR ( 'NONE', #307, 1000.000000000000000 ) ;
#161 = EDGE_CURVE ( 'NONE', #76, #293, #524, .T. ) ;
#162 =( LENGTH_UNIT ( ) NAMED_UNIT ( * ) SI_UNIT ( .MILLI., .METRE. ) );
#163 = FILL_AREA_STYLE ('',( #732 ) ) ;
#164 = CARTESIAN_POINT ( 'NONE',  ( 26.84999999999999787, 9.157032816365866523, -10.57124637873882556 ) ) ;
#165 = ORIENTED_EDGE ( 'NONE', *, *, #255, .F. ) ;
#166 = CARTESIAN_POINT ( 'NONE',  ( 28.84999999999999432, 8.732768747653931740, -10.99551044745076389 ) ) ;
#167 = CIRCLE ( 'NONE', #750, 5.949999999999999289 ) ;
#168 = CARTESIAN_POINT ( 'NONE',  ( 26.84999999999999787, 7.318555185280828823, -9.581296885077675185 ) ) ;
#169 = AXIS2_PLACEMENT_3D ( 'NONE', #56, #804, #66 ) ;
#170 = CIRCLE ( 'NONE', #549, 5.950000000000003730 ) ;
#171 = CARTESIAN_POINT ( 'NONE',  ( 28.84999999999998721, 35.24927304214961055, -37.51201474194617447 ) ) ;
#172 = DIRECTION ( 'NONE',  ( 0.000000000000000000, -0.7071067811865505703, 0.7071067811865444641 ) ) ;
#173 = ORIENTED_EDGE ( 'NONE', *, *, #34, .T. ) ;
#174 = EDGE_CURVE ( 'NONE', #654, #134, #212, .T. ) ;
#175 = ORIENTED_EDGE ( 'NONE', *, *, #522, .F. ) ;
#176 = DIRECTION ( 'NONE',  ( -9.251858538542967883E-17, 0.7071067811865510144, -0.7071067811865441310 ) ) ;
#177 = ORIENTED_EDGE ( 'NONE', *, *, #155, .F. ) ;
#178 = FACE_OUTER_BOUND ( 'NONE', #139, .T. ) ;
#179 = CARTESIAN_POINT ( 'NONE',  ( -30.39999999999999858, 35.70889244992085310, -37.12310601229355456 ) ) ;
#180 = CARTESIAN_POINT ( 'NONE',  ( -26.84999999999999432, 7.035712472806221029, -9.864139597552286531 ) ) ;
#181 = FACE_BOUND ( 'NONE', #623, .T. ) ;
#182 = VERTEX_POINT ( 'NONE', #314 ) ;
#183 = CARTESIAN_POINT ( 'NONE',  ( -30.39999999999999858, 35.70889244992085310, -37.12310601229355456 ) ) ;
#184 = DIRECTION ( 'NONE',  ( -0.000000000000000000, -0.7071067811865441310, -0.7071067811865510144 ) ) ;
#185 = DIRECTION ( 'NONE',  ( 0.000000000000000000, 0.7071067811865441310, 0.7071067811865510144 ) ) ;
#186 = ADVANCED_FACE ( 'NONE', ( #742 ), #625, .F. ) ;
#187 = ORIENTED_EDGE ( 'NONE', *, *, #792, .F. ) ;
#188 = CARTESIAN_POINT ( 'NONE',  ( -26.84999999999999432, 7.318555185280831488, -9.581296885077675185 ) ) ;
#189 = CONICAL_SURFACE ( 'NONE', #364, 2.000000000000002665, 0.7853981633974553844 ) ;
#190 = EDGE_CURVE ( 'NONE', #730, #427, #703, .T. ) ;
#191 = ADVANCED_FACE ( 'NONE', ( #178 ), #69, .T. ) ;
#192 = LINE ( 'NONE', #473, #28 ) ;
#193 = CARTESIAN_POINT ( 'NONE',  ( -28.85000000000000497, 35.24927304214960344, -37.51201474194618868 ) ) ;
#194 = CARTESIAN_POINT ( 'NONE',  ( -36.35000000000000853, 35.70889244992085310, -37.12310601229355456 ) ) ;
#195 = ORIENTED_EDGE ( 'NONE', *, *, #525, .F. ) ;
#196 = DIRECTION ( 'NONE',  ( 0.000000000000000000, -0.7071067811865515695, 0.7071067811865434649 ) ) ;
#197 = VERTEX_POINT ( 'NONE', #685 ) ;
#198 = FACE_OUTER_BOUND ( 'NONE', #675, .T. ) ;
#199 = EDGE_CURVE ( 'NONE', #641, #61, #716, .T. ) ;
#200 = LINE ( 'NONE', #286, #213 ) ;
#201 = LINE ( 'NONE', #168, #101 ) ;
#202 = ORIENTED_EDGE ( 'NONE', *, *, #553, .F. ) ;
#203 = DIRECTION ( 'NONE',  ( 0.000000000000000000, -0.7071067811865475727, 0.7071067811865475727 ) ) ;
#204 = AXIS2_PLACEMENT_3D ( 'NONE', #609, #305, #739 ) ;
#205 = EDGE_CURVE ( 'NONE', #451, #87, #650, .T. ) ;
#206 = ORIENTED_EDGE ( 'NONE', *, *, #100, .F. ) ;
#207 = DIRECTION ( 'NONE',  ( -0.000000000000000000, -0.7071067811865441310, -0.7071067811865510144 ) ) ;
#208 = EDGE_CURVE ( 'NONE', #114, #564, #542, .T. ) ;
#209 = EDGE_LOOP ( 'NONE', ( #615, #513, #317, #591 ) ) ;
#210 = VERTEX_POINT ( 'NONE', #697 ) ;
#211 = CARTESIAN_POINT ( 'NONE',  ( -30.39999999999999858, 4.914392129246559549, -6.328605691619558549 ) ) ;
#212 = LINE ( 'NONE', #756, #92 ) ;
#213 = VECTOR ( 'NONE', #417, 1000.000000000000000 ) ;
#214 = DIRECTION ( 'NONE',  ( 0.000000000000000000, -0.7071067811865507924, 0.7071067811865441310 ) ) ;
#215 = AXIS2_PLACEMENT_3D ( 'NONE', #784, #222, #727 ) ;
#216 = CARTESIAN_POINT ( 'NONE',  ( 26.84999999999998721, 37.51201474194658658, -38.92622830431926673 ) ) ;
#217 = ORIENTED_EDGE ( 'NONE', *, *, #125, .T. ) ;
#218 = ORIENTED_EDGE ( 'NONE', *, *, #676, .T. ) ;
#219 = CARTESIAN_POINT ( 'NONE',  ( 30.39999999999999858, 39.20907101679429729, -42.03749814154005549 ) ) ;
#220 = VECTOR ( 'NONE', #276, 1000.000000000000000 ) ;
#221 = LINE ( 'NONE', #431, #315 ) ;
#222 = DIRECTION ( 'NONE',  ( -0.000000000000000000, -0.7071067811865441310, -0.7071067811865510144 ) ) ;
#223 = CIRCLE ( 'NONE', #119, 1.999999999999992895 ) ;
#224 = ORIENTED_EDGE ( 'NONE', *, *, #255, .T. ) ;
#225 = ORIENTED_EDGE ( 'NONE', *, *, #605, .F. ) ;
#226 = ORIENTED_EDGE ( 'NONE', *, *, #208, .T. ) ;
#227 = CARTESIAN_POINT ( 'NONE',  ( -26.84999999999999432, 8.732768747653931740, -10.99551044745076389 ) ) ;
#228 = VERTEX_POINT ( 'NONE', #527 ) ;
#229 = CARTESIAN_POINT ( 'NONE',  ( 28.84999999999998721, 34.96643032967499209, -37.79485745442079292 ) ) ;
#230 = AXIS2_PLACEMENT_3D ( 'NONE', #351, #422, #176 ) ;
#231 = FACE_OUTER_BOUND ( 'NONE', #545, .T. ) ;
#232 =( NAMED_UNIT ( * ) SI_UNIT ( $, .STERADIAN. ) SOLID_ANGLE_UNIT ( ) );
#233 = LINE ( 'NONE', #507, #380 ) ;
#234 = CARTESIAN_POINT ( 'NONE',  ( -36.35000000000000142, 8.414570696119993087, -11.24299782086604615 ) ) ;
#235 = EDGE_CURVE ( 'NONE', #134, #770, #537, .T. ) ;
#236 = CARTESIAN_POINT ( 'NONE',  ( -26.84999999999999787, 35.67353711086153822, -37.08775067323423968 ) ) ;
#237 = CARTESIAN_POINT ( 'NONE',  ( 30.39999999999999858, 39.20907101679429019, -42.03749814154004838 ) ) ;
#238 = SURFACE_STYLE_USAGE ( .BOTH. , #616 ) ;
#239 = DIRECTION ( 'NONE',  ( 0.000000000000000000, 0.7071067811865446862, 0.7071067811865504593 ) ) ;
#240 = ORIENTED_EDGE ( 'NONE', *, *, #426, .F. ) ;
#241 = CIRCLE ( 'NONE', #661, 2.600000000000013411 ) ;
#242 = ORIENTED_EDGE ( 'NONE', *, *, #547, .F. ) ;
#243 = DIRECTION ( 'NONE',  ( 2.775557561562890365E-16, -0.7071067811865510144, 0.7071067811865441310 ) ) ;
#244 = ORIENTED_EDGE ( 'NONE', *, *, #640, .F. ) ;
#245 = EDGE_CURVE ( 'NONE', #762, #210, #554, .T. ) ;
#246 = DIRECTION ( 'NONE',  ( -0.000000000000000000, -0.7071067811865441310, -0.7071067811865510144 ) ) ;
#247 = DIRECTION ( 'NONE',  ( 0.000000000000000000, 0.7071067811865510144, -0.7071067811865440200 ) ) ;
#248 = ORIENTED_EDGE ( 'NONE', *, *, #137, .F. ) ;
#249 = ORIENTED_EDGE ( 'NONE', *, *, #495, .T. ) ;
#250 = AXIS2_PLACEMENT_3D ( 'NONE', #179, #246, #121 ) ;
#251 = EDGE_CURVE ( 'NONE', #134, #500, #494, .T. ) ;
#252 = ORIENTED_EDGE ( 'NONE', *, *, #190, .F. ) ;
#253 = DIRECTION ( 'NONE',  ( 0.000000000000000000, 0.7071067811865441310, 0.7071067811865510144 ) ) ;
#254 = VERTEX_POINT ( 'NONE', #465 ) ;
#255 = EDGE_CURVE ( 'NONE', #443, #641, #241, .T. ) ;
#256 = PLANE ( 'NONE',  #23 ) ;
#257 = CARTESIAN_POINT ( 'NONE',  ( -26.84999999999999432, 9.157032816365866523, -10.57124637873882556 ) ) ;
#258 = VECTOR ( 'NONE', #260, 1000.000000000000000 ) ;
#259 = SHAPE_DEFINITION_REPRESENTATION ( #447, #635 ) ;
#260 = DIRECTION ( 'NONE',  ( 1.000000000000000000, 0.000000000000000000, 0.000000000000000000 ) ) ;
#261 = ADVANCED_FACE ( 'NONE', ( #80 ), #189, .F. ) ;
#262 = AXIS2_PLACEMENT_3D ( 'NONE', #7, #132, #805 ) ;
#263 = DIRECTION ( 'NONE',  ( 2.775557561562890365E-16, -0.7071067811865510144, 0.7071067811865441310 ) ) ;
#264 = DIRECTION ( 'NONE',  ( 0.000000000000000000, 0.7071067811865475727, 0.7071067811865475727 ) ) ;
#265 = ORIENTED_EDGE ( 'NONE', *, *, #472, .T. ) ;
#266 = ADVANCED_FACE ( 'NONE', ( #231 ), #768, .T. ) ;
#267 = PLANE ( 'NONE',  #491 ) ;
#268 = CIRCLE ( 'NONE', #47, 2.000000000000000444 ) ;
#269 = CARTESIAN_POINT ( 'NONE',  ( -29.45000000000001705, 35.67353711086153822, -37.08775067323423968 ) ) ;
#270 = CIRCLE ( 'NONE', #603, 1.999999999999996447 ) ;
#271 = EDGE_CURVE ( 'NONE', #182, #443, #355, .T. ) ;
#272 = DIRECTION ( 'NONE',  ( 0.000000000000000000, -0.7071067811865526798, 0.7071067811865423547 ) ) ;
#273 = ORIENTED_EDGE ( 'NONE', *, *, #416, .T. ) ;
#274 = CARTESIAN_POINT ( 'NONE',  ( -36.35000000000000853, 35.70889244992085310, -37.12310601229355456 ) ) ;
#275 = ORIENTED_EDGE ( 'NONE', *, *, #295, .T. ) ;
#276 = DIRECTION ( 'NONE',  ( -0.000000000000000000, -0.7071067811865441310, -0.7071067811865510144 ) ) ;
#277 = DIRECTION ( 'NONE',  ( 0.7071067811865513475, 0.4999999999999952260, 0.4999999999999992784 ) ) ;
#278 = FACE_OUTER_BOUND ( 'NONE', #785, .T. ) ;
#279 = AXIS2_PLACEMENT_3D ( 'NONE', #585, #470, #77 ) ;
#280 = CARTESIAN_POINT ( 'NONE',  ( -36.35000000000000853, 35.00178566873431407, -37.83021279348010779 ) ) ;
#281 = AXIS2_PLACEMENT_3D ( 'NONE', #729, #492, #550 ) ;
#282 = ADVANCED_FACE ( 'NONE', ( #560 ), #267, .F. ) ;
#283 = DIRECTION ( 'NONE',  ( 0.000000000000000000, 0.7071067811865441310, 0.7071067811865510144 ) ) ;
#284 = EDGE_CURVE ( 'NONE', #293, #654, #368, .T. ) ;
#285 = ORIENTED_EDGE ( 'NONE', *, *, #326, .T. ) ;
#286 = CARTESIAN_POINT ( 'NONE',  ( 36.35000000000000142, 35.70889244992085310, -37.12310601229355456 ) ) ;
#287 = PLANE ( 'NONE',  #230 ) ;
#288 = ORIENTED_EDGE ( 'NONE', *, *, #39, .F. ) ;
#289 = ORIENTED_EDGE ( 'NONE', *, *, #433, .T. ) ;
#290 = ORIENTED_EDGE ( 'NONE', *, *, #757, .F. ) ;
#291 = DIRECTION ( 'NONE',  ( 0.000000000000000000, 0.7071067811865441310, 0.7071067811865510144 ) ) ;
#292 = EDGE_CURVE ( 'NONE', #87, #254, #167, .T. ) ;
#293 = VERTEX_POINT ( 'NONE', #701 ) ;
#294 = PRODUCT_DEFINITION_FORMATION_WITH_SPECIFIED_SOURCE ( 'ÈÎºÎ', '', #390, .NOT_KNOWN. ) ;
#295 = EDGE_CURVE ( 'NONE', #451, #385, #796, .T. ) ;
#296 = VECTOR ( 'NONE', #207, 1000.000000000000000 ) ;
#297 = EDGE_CURVE ( 'NONE', #31, #385, #327, .T. ) ;
#298 = PRODUCT_CONTEXT ( 'NONE', #373, 'mechanical' ) ;
#299 = DIRECTION ( 'NONE',  ( -0.000000000000000000, -0.7071067811865441310, -0.7071067811865510144 ) ) ;
#300 = CARTESIAN_POINT ( 'NONE',  ( -26.84999999999999787, 35.24927304214961055, -37.51201474194617447 ) ) ;
#301 = EDGE_LOOP ( 'NONE', ( #402, #152, #102, #587 ) ) ;
#302 = CARTESIAN_POINT ( 'NONE',  ( -36.35000000000000142, 9.121677477306535664, -10.53589103967949647 ) ) ;
#303 = AXIS2_PLACEMENT_3D ( 'NONE', #257, #184, #387 ) ;
#304 = VECTOR ( 'NONE', #9, 1000.000000000000114 ) ;
#305 = DIRECTION ( 'NONE',  ( 0.000000000000000000, 0.000000000000000000, 1.000000000000000000 ) ) ;
#306 = CYLINDRICAL_SURFACE ( 'NONE', #281, 1.999999999999992895 ) ;
#307 = DIRECTION ( 'NONE',  ( 1.845450506358305079E-16, -0.7071067811865507924, 0.7071067811865441310 ) ) ;
#308 = DIRECTION ( 'NONE',  ( 1.000000000000000000, 0.000000000000000000, 0.000000000000000000 ) ) ;
#309 = CARTESIAN_POINT ( 'NONE',  ( 26.84999999999999787, 8.732768747653931740, -10.99551044745076389 ) ) ;
#310 = ORIENTED_EDGE ( 'NONE', *, *, #147, .F. ) ;
#311 = CLOSED_SHELL ( 'NONE', ( #394, #695, #576, #398, #191, #186, #535, #282, #636, #135, #773, #266, #461, #10, #456, #517, #408, #329, #632, #753, #261, #578, #74, #71, #322, #511 ) ) ;
#312 = DIRECTION ( 'NONE',  ( -0.000000000000000000, -0.7071067811865441310, -0.7071067811865510144 ) ) ;
#313 = CARTESIAN_POINT ( 'NONE',  ( 30.39999999999999858, 39.91617779798084342, -41.33039136035350225 ) ) ;
#314 = CARTESIAN_POINT ( 'NONE',  ( -26.84999999999999787, 37.51201474194659369, -38.92622830431927383 ) ) ;
#315 = VECTOR ( 'NONE', #400, 1000.000000000000000 ) ;
#316 = DIRECTION ( 'NONE',  ( 0.000000000000000000, 0.7071067811865510144, -0.7071067811865441310 ) ) ;
#317 = ORIENTED_EDGE ( 'NONE', *, *, #664, .F. ) ;
#318 = DIRECTION ( 'NONE',  ( 0.000000000000000000, 0.7071067811865510144, -0.7071067811865441310 ) ) ;
#319 = AXIS2_PLACEMENT_3D ( 'NONE', #708, #339, #89 ) ;
#320 = DIRECTION ( 'NONE',  ( 0.000000000000000000, -1.000000000000000000, -8.177564888977799766E-15 ) ) ;
#321 = UNCERTAINTY_MEASURE_WITH_UNIT (LENGTH_MEASURE( 1.000000000000000082E-05 ), #162, 'distance_accuracy_value', 'NONE');
#322 = ADVANCED_FACE ( 'NONE', ( #592 ), #33, .F. ) ;
#323 = DIRECTION ( 'NONE',  ( -0.7071067811865516806, -0.4999999999999948375, -0.4999999999999993339 ) ) ;
#324 = DIRECTION ( 'NONE',  ( -2.775557561562890365E-16, 0.7071067811865510144, -0.7071067811865441310 ) ) ;
#325 = ORIENTED_EDGE ( 'NONE', *, *, #344, .T. ) ;
#326 = EDGE_CURVE ( 'NONE', #430, #427, #466, .T. ) ;
#327 = CIRCLE ( 'NONE', #319, 5.950000000000011724 ) ;
#328 = DIRECTION ( 'NONE',  ( 0.000000000000000000, -0.7071067811865509034, 0.7071067811865441310 ) ) ;
#329 = ADVANCED_FACE ( 'NONE', ( #198 ), #652, .T. ) ;
#330 = LINE ( 'NONE', #735, #627 ) ;
#331 = DIRECTION ( 'NONE',  ( -1.304930567390111708E-16, 1.000000000000000000, 0.000000000000000000 ) ) ;
#332 = EDGE_LOOP ( 'NONE', ( #711, #376, #310, #165 ) ) ;
#333 = VERTEX_POINT ( 'NONE', #481 ) ;
#334 = CARTESIAN_POINT ( 'NONE',  ( -30.39999999999999858, 9.121677477306535664, -10.53589103967949647 ) ) ;
#335 = PLANE ( 'NONE',  #509 ) ;
#336 = VECTOR ( 'NONE', #712, 1000.000000000000000 ) ;
#337 = AXIS2_PLACEMENT_3D ( 'NONE', #51, #612, #614 ) ;
#338 = VECTOR ( 'NONE', #758, 1000.000000000000000 ) ;
#339 = DIRECTION ( 'NONE',  ( 0.000000000000000000, 0.7071067811865441310, 0.7071067811865510144 ) ) ;
#340 = AXIS2_PLACEMENT_3D ( 'NONE', #464, #460, #133 ) ;
#341 = CIRCLE ( 'NONE', #63, 2.600000000000011635 ) ;
#342 = EDGE_CURVE ( 'NONE', #500, #730, #268, .T. ) ;
#343 = CARTESIAN_POINT ( 'NONE',  ( 26.84999999999999787, 9.157032816365866523, -10.57124637873882556 ) ) ;
#344 = EDGE_CURVE ( 'NONE', #254, #103, #643, .T. ) ;
#345 = CARTESIAN_POINT ( 'NONE',  ( 28.84999999999998721, 35.67353711086153822, -37.08775067323423968 ) ) ;
#346 = ORIENTED_EDGE ( 'NONE', *, *, #159, .F. ) ;
#347 = ORIENTED_EDGE ( 'NONE', *, *, #295, .F. ) ;
#348 = LINE ( 'NONE', #505, #599 ) ;
#349 = FACE_OUTER_BOUND ( 'NONE', #424, .T. ) ;
#350 = CARTESIAN_POINT ( 'NONE',  ( 36.35000000000000142, 35.70889244992085310, -37.12310601229355456 ) ) ;
#351 = CARTESIAN_POINT ( 'NONE',  ( 28.84999999999998721, 35.24927304214961055, -37.51201474194617447 ) ) ;
#352 = ORIENTED_EDGE ( 'NONE', *, *, #271, .T. ) ;
#353 = ORIENTED_EDGE ( 'NONE', *, *, #462, .F. ) ;
#354 = CARTESIAN_POINT ( 'NONE',  ( 36.35000000000000142, 9.121677477306535664, -10.53589103967949647 ) ) ;
#355 = LINE ( 'NONE', #13, #479 ) ;
#356 = CARTESIAN_POINT ( 'NONE',  ( -26.84999999999999432, 9.157032816365866523, -10.57124637873882556 ) ) ;
#357 = CYLINDRICAL_SURFACE ( 'NONE', #340, 5.949999999999999289 ) ;
#358 = FACE_OUTER_BOUND ( 'NONE', #541, .T. ) ;
#359 = DIRECTION ( 'NONE',  ( 0.000000000000000000, 0.7071067811865441310, 0.7071067811865510144 ) ) ;
#360 = DIRECTION ( 'NONE',  ( 0.000000000000000000, 0.7071067811865507924, -0.7071067811865441310 ) ) ;
#361 = CARTESIAN_POINT ( 'NONE',  ( -26.84999999999999432, 7.035712472806221029, -9.864139597552288308 ) ) ;
#362 = VERTEX_POINT ( 'NONE', #350 ) ;
#363 = CARTESIAN_POINT ( 'NONE',  ( 26.84999999999999787, 8.732768747653931740, -10.99551044745076389 ) ) ;
#364 = AXIS2_PLACEMENT_3D ( 'NONE', #581, #264, #203 ) ;
#365 = EDGE_LOOP ( 'NONE', ( #586, #463, #540, #501 ) ) ;
#366 = AXIS2_PLACEMENT_3D ( 'NONE', #793, #359, #613 ) ;
#367 = ORIENTED_EDGE ( 'NONE', *, *, #664, .T. ) ;
#368 = LINE ( 'NONE', #269, #304 ) ;
#369 = DIRECTION ( 'NONE',  ( 0.000000000000000000, 0.7071067811865441310, 0.7071067811865510144 ) ) ;
#370 = CIRCLE ( 'NONE', #157, 5.950000000000014388 ) ;
#371 = EDGE_CURVE ( 'NONE', #134, #76, #504, .T. ) ;
#372 = CARTESIAN_POINT ( 'NONE',  ( -30.39999999999999858, 4.207285348060015195, -7.035712472806110007 ) ) ;
#373 = APPLICATION_CONTEXT ( 'automotive_design' ) ;
#374 = DIRECTION ( 'NONE',  ( 0.000000000000000000, 0.7071067811865446862, 0.7071067811865504593 ) ) ;
#375 = ORIENTED_EDGE ( 'NONE', *, *, #416, .F. ) ;
#376 = ORIENTED_EDGE ( 'NONE', *, *, #512, .F. ) ;
#377 = CARTESIAN_POINT ( 'NONE',  ( 26.84999999999998721, 37.51201474194658658, -38.92622830431926673 ) ) ;
#378 = VECTOR ( 'NONE', #144, 1000.000000000000000 ) ;
#379 = DIRECTION ( 'NONE',  ( 0.000000000000000000, -0.7071067811865507924, 0.7071067811865441310 ) ) ;
#380 = VECTOR ( 'NONE', #312, 1000.000000000000000 ) ;
#381 = LINE ( 'NONE', #108, #446 ) ;
#382 =( GEOMETRIC_REPRESENTATION_CONTEXT ( 3 ) GLOBAL_UNCERTAINTY_ASSIGNED_CONTEXT ( ( #778 ) ) GLOBAL_UNIT_ASSIGNED_CONTEXT ( ( #126, #630, #510 ) ) REPRESENTATION_CONTEXT ( 'NONE', 'WORKASPACE' ) );
#383 = CARTESIAN_POINT ( 'NONE',  ( 29.44999999999999929, 35.67353711086153822, -37.08775067323423968 ) ) ;
#384 = AXIS2_PLACEMENT_3D ( 'NONE', #193, #323, #263 ) ;
#385 = VERTEX_POINT ( 'NONE', #280 ) ;
#386 = ORIENTED_EDGE ( 'NONE', *, *, #26, .T. ) ;
#387 = DIRECTION ( 'NONE',  ( 0.000000000000000000, -0.7071067811865507924, 0.7071067811865441310 ) ) ;
#388 = EDGE_CURVE ( 'NONE', #88, #83, #657, .T. ) ;
#389 = ORIENTED_EDGE ( 'NONE', *, *, #631, .F. ) ;
#390 = PRODUCT ( 'lens', 'lens', '', ( #298 ) ) ;
#391 = ORIENTED_EDGE ( 'NONE', *, *, #522, .T. ) ;
#392 = CARTESIAN_POINT ( 'NONE',  ( -26.84999999999999787, 36.38064389204809146, -39.20907101679387807 ) ) ;
#393 = DIRECTION ( 'NONE',  ( 1.000000000000000000, 0.000000000000000000, 0.000000000000000000 ) ) ;
#394 = ADVANCED_FACE ( 'NONE', ( #27, #156 ), #415, .T. ) ;
#395 = VECTOR ( 'NONE', #575, 1000.000000000000000 ) ;
#396 = CIRCLE ( 'NONE', #104, 5.950000000000003730 ) ;
#397 = CARTESIAN_POINT ( 'NONE',  ( -26.84999999999999787, 36.66348660452269570, -38.92622830431926673 ) ) ;
#398 = ADVANCED_FACE ( 'NONE', ( #487 ), #596, .F. ) ;
#399 = CARTESIAN_POINT ( 'NONE',  ( 26.84999999999998721, 36.66348660452270281, -38.92622830431926673 ) ) ;
#400 = DIRECTION ( 'NONE',  ( 0.000000000000000000, 0.7071067811865507924, -0.7071067811865441310 ) ) ;
#401 = ORIENTED_EDGE ( 'NONE', *, *, #20, .F. ) ;
#402 = ORIENTED_EDGE ( 'NONE', *, *, #284, .F. ) ;
#403 = DIRECTION ( 'NONE',  ( 0.000000000000000000, -0.7071067811865507924, 0.7071067811865441310 ) ) ;
#404 = VECTOR ( 'NONE', #32, 1000.000000000000000 ) ;
#405 = CIRCLE ( 'NONE', #626, 1.999999999999996447 ) ;
#406 = ORIENTED_EDGE ( 'NONE', *, *, #90, .F. ) ;
#407 = DIRECTION ( 'NONE',  ( 0.000000000000000000, 0.7071067811865417996, 0.7071067811865533459 ) ) ;
#408 = ADVANCED_FACE ( 'NONE', ( #682 ), #637, .F. ) ;
#409 = ORIENTED_EDGE ( 'NONE', *, *, #174, .T. ) ;
#410 = CARTESIAN_POINT ( 'NONE',  ( 30.39999999999999858, 8.414570696119993087, -11.24299782086604615 ) ) ;
#411 = VECTOR ( 'NONE', #140, 1000.000000000000000 ) ;
#412 = VECTOR ( 'NONE', #308, 1000.000000000000000 ) ;
#413 = CARTESIAN_POINT ( 'NONE',  ( -28.84999999999999432, 8.732768747653922858, -10.99551044745077277 ) ) ;
#414 = CARTESIAN_POINT ( 'NONE',  ( 30.39999999999999858, 8.414570696119993087, -11.24299782086604615 ) ) ;
#415 = PLANE ( 'NONE',  #691 ) ;
#416 = EDGE_CURVE ( 'NONE', #564, #210, #754, .T. ) ;
#417 = DIRECTION ( 'NONE',  ( -0.000000000000000000, -0.7071067811865441310, -0.7071067811865510144 ) ) ;
#418 = ORIENTED_EDGE ( 'NONE', *, *, #803, .F. ) ;
#419 = DIRECTION ( 'NONE',  ( 0.000000000000000000, -0.7071067811865510144, 0.7071067811865441310 ) ) ;
#420 = CIRCLE ( 'NONE', #749, 5.949999999999999289 ) ;
#421 = ORIENTED_EDGE ( 'NONE', *, *, #326, .F. ) ;
#422 = DIRECTION ( 'NONE',  ( 0.7071067811865413555, -0.5000000000000019984, -0.5000000000000067724 ) ) ;
#423 = LINE ( 'NONE', #171, #81 ) ;
#424 = EDGE_LOOP ( 'NONE', ( #667, #248, #177, #562 ) ) ;
#425 = ORIENTED_EDGE ( 'NONE', *, *, #190, .T. ) ;
#426 = EDGE_CURVE ( 'NONE', #702, #534, #435, .T. ) ;
#427 = VERTEX_POINT ( 'NONE', #539 ) ;
#428 =( GEOMETRIC_REPRESENTATION_CONTEXT ( 3 ) GLOBAL_UNCERTAINTY_ASSIGNED_CONTEXT ( ( #321 ) ) GLOBAL_UNIT_ASSIGNED_CONTEXT ( ( #162, #41, #499 ) ) REPRESENTATION_CONTEXT ( 'NONE', 'WORKASPACE' ) );
#429 = DIRECTION ( 'NONE',  ( 0.000000000000000000, -0.7071067811865515695, 0.7071067811865434649 ) ) ;
#430 = VERTEX_POINT ( 'NONE', #777 ) ;
#431 = CARTESIAN_POINT ( 'NONE',  ( 36.35000000000000142, 8.414570696119993087, -11.24299782086604615 ) ) ;
#432 = VECTOR ( 'NONE', #136, 1000.000000000000000 ) ;
#433 = EDGE_CURVE ( 'NONE', #87, #12, #480, .T. ) ;
#434 = DIRECTION ( 'NONE',  ( 0.000000000000000000, -0.7071067811865510144, 0.7071067811865440200 ) ) ;
#435 = LINE ( 'NONE', #780, #811 ) ;
#436 = DIRECTION ( 'NONE',  ( 0.000000000000000000, -0.7071067811865505703, 0.7071067811865444641 ) ) ;
#437 = CARTESIAN_POINT ( 'NONE',  ( 36.35000000000000142, 9.121677477306535664, -10.53589103967949647 ) ) ;
#438 = DIRECTION ( 'NONE',  ( 0.000000000000000000, -0.7071067811865510144, 0.7071067811865440200 ) ) ;
#439 = PLANE ( 'NONE',  #337 ) ;
#440 = ORIENTED_EDGE ( 'NONE', *, *, #808, .T. ) ;
#441 = VECTOR ( 'NONE', #689, 1000.000000000000000 ) ;
#442 = PLANE ( 'NONE',  #723 ) ;
#443 = VERTEX_POINT ( 'NONE', #216 ) ;
#444 = EDGE_CURVE ( 'NONE', #362, #333, #200, .T. ) ;
#445 = CARTESIAN_POINT ( 'NONE',  ( -26.84999999999999787, 34.96643032967499209, -37.79485745442079292 ) ) ;
#446 = VECTOR ( 'NONE', #498, 1000.000000000000000 ) ;
#447 = PRODUCT_DEFINITION_SHAPE ( 'NONE', 'NONE',  #769 ) ;
#448 = DIRECTION ( 'NONE',  ( 2.775557561562889872E-16, -0.7071067811865510144, 0.7071067811865441310 ) ) ;
#449 = DIRECTION ( 'NONE',  ( 0.000000000000000000, -0.7071067811865509034, 0.7071067811865441310 ) ) ;
#450 = ORIENTED_EDGE ( 'NONE', *, *, #388, .T. ) ;
#451 = VERTEX_POINT ( 'NONE', #478 ) ;
#452 = ORIENTED_EDGE ( 'NONE', *, *, #426, .T. ) ;
#453 = DIRECTION ( 'NONE',  ( 0.000000000000000000, -1.022195611122227140E-14, 1.000000000000000000 ) ) ;
#454 = DIRECTION ( 'NONE',  ( -0.000000000000000000, -0.7071067811865441310, -0.7071067811865510144 ) ) ;
#455 = CIRCLE ( 'NONE', #68, 2.000000000000002665 ) ;
#456 = ADVANCED_FACE ( 'NONE', ( #694 ), #45, .F. ) ;
#457 = AXIS2_PLACEMENT_3D ( 'NONE', #642, #328, #16 ) ;
#458 = DIRECTION ( 'NONE',  ( -9.251858538542966651E-17, 0.7071067811865510144, -0.7071067811865441310 ) ) ;
#459 = CARTESIAN_POINT ( 'NONE',  ( 28.84999999999998721, 35.67353711086153822, -37.08775067323423968 ) ) ;
#460 = DIRECTION ( 'NONE',  ( -0.000000000000000000, -0.7071067811865441310, -0.7071067811865510144 ) ) ;
#461 = ADVANCED_FACE ( 'NONE', ( #94 ), #593, .F. ) ;
#462 = EDGE_CURVE ( 'NONE', #362, #88, #396, .T. ) ;
#463 = ORIENTED_EDGE ( 'NONE', *, *, #717, .F. ) ;
#464 = CARTESIAN_POINT ( 'NONE',  ( -30.39999999999999858, 9.121677477306535664, -10.53589103967949647 ) ) ;
#465 = CARTESIAN_POINT ( 'NONE',  ( -30.39999999999999858, 4.914392129246559549, -6.328605691619558549 ) ) ;
#466 = LINE ( 'NONE', #95, #220 ) ;
#467 = CARTESIAN_POINT ( 'NONE',  ( -36.35000000000000853, 35.70889244992085310, -37.12310601229355456 ) ) ;
#468 = ORIENTED_EDGE ( 'NONE', *, *, #553, .T. ) ;
#469 = ORIENTED_EDGE ( 'NONE', *, *, #82, .F. ) ;
#470 = DIRECTION ( 'NONE',  ( 0.000000000000000000, 0.7071067811865446862, 0.7071067811865504593 ) ) ;
#471 = ORIENTED_EDGE ( 'NONE', *, *, #483, .F. ) ;
#472 = EDGE_CURVE ( 'NONE', #725, #707, #556, .T. ) ;
#473 = CARTESIAN_POINT ( 'NONE',  ( 28.84999999999999432, 8.732768747653931740, -10.99551044745076389 ) ) ;
#474 = LINE ( 'NONE', #681, #543 ) ;
#475 = DIRECTION ( 'NONE',  ( -0.000000000000000000, -0.7071067811865441310, -0.7071067811865510144 ) ) ;
#476 = EDGE_CURVE ( 'NONE', #83, #31, #158, .T. ) ;
#477 = ORIENTED_EDGE ( 'NONE', *, *, #717, .T. ) ;
#478 = CARTESIAN_POINT ( 'NONE',  ( -36.35000000000000853, 35.70889244992085310, -37.12310601229355456 ) ) ;
#479 = VECTOR ( 'NONE', #638, 1000.000000000000000 ) ;
#480 = LINE ( 'NONE', #647, #296 ) ;
#481 = CARTESIAN_POINT ( 'NONE',  ( 36.35000000000000142, 35.00178566873431407, -37.83021279348010779 ) ) ;
#482 = DIRECTION ( 'NONE',  ( -0.000000000000000000, -0.7071067811865441310, -0.7071067811865510144 ) ) ;
#483 = EDGE_CURVE ( 'NONE', #762, #362, #142, .T. ) ;
#484 = ORIENTED_EDGE ( 'NONE', *, *, #147, .T. ) ;
#485 = ORIENTED_EDGE ( 'NONE', *, *, #82, .T. ) ;
#486 = DIRECTION ( 'NONE',  ( 0.000000000000000000, -0.7071067811865510144, 0.7071067811865440200 ) ) ;
#487 = FACE_OUTER_BOUND ( 'NONE', #124, .T. ) ;
#488 = LINE ( 'NONE', #692, #338 ) ;
#489 = ORIENTED_EDGE ( 'NONE', *, *, #38, .T. ) ;
#490 = DIRECTION ( 'NONE',  ( -1.000000000000000000, 0.000000000000000000, 0.000000000000000000 ) ) ;
#491 = AXIS2_PLACEMENT_3D ( 'NONE', #274, #644, #331 ) ;
#492 = DIRECTION ( 'NONE',  ( -0.000000000000000000, -0.7071067811865441310, -0.7071067811865510144 ) ) ;
#493 = EDGE_LOOP ( 'NONE', ( #52, #622, #722, #786, #3, #704, #802, #567 ) ) ;
#494 = LINE ( 'NONE', #530, #432 ) ;
#495 = EDGE_CURVE ( 'NONE', #210, #333, #221, .T. ) ;
#496 = DIRECTION ( 'NONE',  ( 0.000000000000000000, -0.7071067811865475727, 0.7071067811865475727 ) ) ;
#497 = LINE ( 'NONE', #1, #680 ) ;
#498 = DIRECTION ( 'NONE',  ( -1.000000000000000000, -0.000000000000000000, -0.000000000000000000 ) ) ;
#499 =( NAMED_UNIT ( * ) SI_UNIT ( $, .STERADIAN. ) SOLID_ANGLE_UNIT ( ) );
#500 = VERTEX_POINT ( 'NONE', #557 ) ;
#501 = ORIENTED_EDGE ( 'NONE', *, *, #808, .F. ) ;
#502 = CARTESIAN_POINT ( 'NONE',  ( -30.39999999999999858, 39.20907101679429729, -42.03749814154005549 ) ) ;
#503 = CARTESIAN_POINT ( 'NONE',  ( 28.84999999999998721, 35.24927304214959634, -37.51201474194618868 ) ) ;
#504 = LINE ( 'NONE', #413, #336 ) ;
#505 = CARTESIAN_POINT ( 'NONE',  ( -26.84999999999999432, 7.742819253992764494, -9.157032816365738626 ) ) ;
#506 = LINE ( 'NONE', #78, #718 ) ;
#507 = CARTESIAN_POINT ( 'NONE',  ( -28.84999999999999787, 35.67353711086153822, -37.08775067323423968 ) ) ;
#508 = ORIENTED_EDGE ( 'NONE', *, *, #342, .F. ) ;
#509 = AXIS2_PLACEMENT_3D ( 'NONE', #414, #594, #25 ) ;
#510 =( NAMED_UNIT ( * ) SI_UNIT ( $, .STERADIAN. ) SOLID_ANGLE_UNIT ( ) );
#511 = ADVANCED_FACE ( 'NONE', ( #55 ), #287, .F. ) ;
#512 = EDGE_CURVE ( 'NONE', #607, #633, #72, .T. ) ;
#513 = ORIENTED_EDGE ( 'NONE', *, *, #34, .F. ) ;
#514 = PLANE ( 'NONE',  #123 ) ;
#515 = DIRECTION ( 'NONE',  ( 0.000000000000000000, 0.7071067811865441310, 0.7071067811865510144 ) ) ;
#516 = ORIENTED_EDGE ( 'NONE', *, *, #757, .T. ) ;
#517 = ADVANCED_FACE ( 'NONE', ( #797 ), #514, .T. ) ;
#518 = VECTOR ( 'NONE', #84, 1000.000000000000000 ) ;
#519 = PLANE ( 'NONE',  #262 ) ;
#520 = FACE_OUTER_BOUND ( 'NONE', #4, .T. ) ;
#521 = ORIENTED_EDGE ( 'NONE', *, *, #512, .T. ) ;
#522 = EDGE_CURVE ( 'NONE', #228, #570, #474, .T. ) ;
#523 = ORIENTED_EDGE ( 'NONE', *, *, #344, .F. ) ;
#524 = LINE ( 'NONE', #620, #668 ) ;
#525 = EDGE_CURVE ( 'NONE', #654, #801, #233, .T. ) ;
#526 = LINE ( 'NONE', #117, #412 ) ;
#527 = CARTESIAN_POINT ( 'NONE',  ( 26.84999999999999787, 7.318555185280821718, -8.732768747653800290 ) ) ;
#528 = LINE ( 'NONE', #666, #659 ) ;
#529 = ORIENTED_EDGE ( 'NONE', *, *, #476, .T. ) ;
#530 = CARTESIAN_POINT ( 'NONE',  ( -28.84999999999999432, 9.157032816365866523, -10.57124637873882556 ) ) ;
#531 = ORIENTED_EDGE ( 'NONE', *, *, #251, .F. ) ;
#532 = CARTESIAN_POINT ( 'NONE',  ( 30.39999999999999858, 39.91617779798083632, -41.33039136035349514 ) ) ;
#533 = EDGE_LOOP ( 'NONE', ( #153, #579, #721, #325 ) ) ;
#534 = VERTEX_POINT ( 'NONE', #392 ) ;
#535 = ADVANCED_FACE ( 'NONE', ( #658 ), #17, .T. ) ;
#536 = CARTESIAN_POINT ( 'NONE',  ( 30.39999999999999858, 9.121677477306535664, -10.53589103967949647 ) ) ;
#537 = CIRCLE ( 'NONE', #279, 2.000000000000000444 ) ;
#538 = VECTOR ( 'NONE', #448, 1000.000000000000000 ) ;
#539 = CARTESIAN_POINT ( 'NONE',  ( 26.84999999999999787, 7.035712472806221029, -9.864139597552286531 ) ) ;
#540 = ORIENTED_EDGE ( 'NONE', *, *, #676, .F. ) ;
#541 = EDGE_LOOP ( 'NONE', ( #218, #389, #406, #14 ) ) ;
#542 = LINE ( 'NONE', #771, #54 ) ;
#543 = VECTOR ( 'NONE', #799, 1000.000000000000000 ) ;
#544 = ORIENTED_EDGE ( 'NONE', *, *, #388, .F. ) ;
#545 = EDGE_LOOP ( 'NONE', ( #244, #65, #452, #401 ) ) ;
#546 = DIRECTION ( 'NONE',  ( -0.000000000000000000, -0.7071067811865441310, -0.7071067811865510144 ) ) ;
#547 = EDGE_CURVE ( 'NONE', #720, #451, #370, .T. ) ;
#548 = ORIENTED_EDGE ( 'NONE', *, *, #199, .T. ) ;
#549 = AXIS2_PLACEMENT_3D ( 'NONE', #40, #787, #434 ) ;
#550 = DIRECTION ( 'NONE',  ( 0.000000000000000000, 0.7071067811865510144, -0.7071067811865441310 ) ) ;
#551 = ORIENTED_EDGE ( 'NONE', *, *, #433, .F. ) ;
#552 = EDGE_LOOP ( 'NONE', ( #375, #621, #15, #206, #120, #42, #290, #37 ) ) ;
#553 = EDGE_CURVE ( 'NONE', #534, #801, #455, .T. ) ;
#554 = LINE ( 'NONE', #19, #752 ) ;
#555 = CARTESIAN_POINT ( 'NONE',  ( 29.45000000000000995, 9.157032816365866523, -10.57124637873882556 ) ) ;
#556 = LINE ( 'NONE', #655, #404 ) ;
#557 = CARTESIAN_POINT ( 'NONE',  ( -28.84999999999999432, 8.449926035179322170, -11.27835315992537701 ) ) ;
#558 = CARTESIAN_POINT ( 'NONE',  ( 26.84999999999999787, 8.449926035179322170, -11.27835315992537701 ) ) ;
#559 = EDGE_LOOP ( 'NONE', ( #79, #347, #242, #489 ) ) ;
#560 = FACE_OUTER_BOUND ( 'NONE', #728, .T. ) ;
#561 = AXIS2_PLACEMENT_3D ( 'NONE', #363, #374, #436 ) ;
#562 = ORIENTED_EDGE ( 'NONE', *, *, #235, .F. ) ;
#563 = LINE ( 'NONE', #377, #57 ) ;
#564 = VERTEX_POINT ( 'NONE', #751 ) ;
#565 = EDGE_CURVE ( 'NONE', #103, #564, #35, .T. ) ;
#566 = CARTESIAN_POINT ( 'NONE',  ( 28.84999999999999432, 8.449926035179322170, -11.27835315992537701 ) ) ;
#567 = ORIENTED_EDGE ( 'NONE', *, *, #595, .T. ) ;
#568 = DIRECTION ( 'NONE',  ( -0.000000000000000000, -0.7071067811865441310, -0.7071067811865510144 ) ) ;
#569 = ORIENTED_EDGE ( 'NONE', *, *, #161, .T. ) ;
#570 = VERTEX_POINT ( 'NONE', #129 ) ;
#571 = DIRECTION ( 'NONE',  ( 0.000000000000000000, 0.7071067811865510144, -0.7071067811865441310 ) ) ;
#572 = DIRECTION ( 'NONE',  ( 0.000000000000000000, -0.7071067811865441310, -0.7071067811865509034 ) ) ;
#573 = VECTOR ( 'NONE', #360, 1000.000000000000000 ) ;
#574 = AXIS2_PLACEMENT_3D ( 'NONE', #11, #407, #272 ) ;
#575 = DIRECTION ( 'NONE',  ( -0.000000000000000000, -0.7071067811865441310, -0.7071067811865510144 ) ) ;
#576 = ADVANCED_FACE ( 'NONE', ( #645 ), #128, .T. ) ;
#577 = CARTESIAN_POINT ( 'NONE',  ( -26.84999999999999787, 36.66348660452270281, -38.92622830431926673 ) ) ;
#578 = ADVANCED_FACE ( 'NONE', ( #734 ), #256, .F. ) ;
#579 = ORIENTED_EDGE ( 'NONE', *, *, #208, .F. ) ;
#580 = FACE_OUTER_BOUND ( 'NONE', #533, .T. ) ;
#581 = CARTESIAN_POINT ( 'NONE',  ( -26.84999999999999787, 35.24927304214961055, -37.51201474194617447 ) ) ;
#582 = PRODUCT_DEFINITION_CONTEXT ( 'detailed design', #50, 'design' ) ;
#583 = CONICAL_SURFACE ( 'NONE', #561, 1.999999999999996447, 0.7853981633974533860 ) ;
#584 = EDGE_LOOP ( 'NONE', ( #531, #29, #43, #508 ) ) ;
#585 = CARTESIAN_POINT ( 'NONE',  ( -26.84999999999999432, 8.732768747653931740, -10.99551044745076389 ) ) ;
#586 = ORIENTED_EDGE ( 'NONE', *, *, #284, .T. ) ;
#587 = ORIENTED_EDGE ( 'NONE', *, *, #174, .F. ) ;
#588 = EDGE_CURVE ( 'NONE', #707, #24, #497, .T. ) ;
#589 = SURFACE_STYLE_FILL_AREA ( #800 ) ;
#590 = STYLED_ITEM ( 'NONE', ( #99 ), #635 ) ;
#591 = ORIENTED_EDGE ( 'NONE', *, *, #73, .F. ) ;
#592 = FACE_OUTER_BOUND ( 'NONE', #332, .T. ) ;
#593 = CYLINDRICAL_SURFACE ( 'NONE', #215, 2.000000000000002665 ) ;
#594 = DIRECTION ( 'NONE',  ( 0.000000000000000000, 0.7071067811865441310, 0.7071067811865510144 ) ) ;
#595 = EDGE_CURVE ( 'NONE', #254, #114, #526, .T. ) ;
#596 = PLANE ( 'NONE',  #737 ) ;
#597 = EDGE_LOOP ( 'NONE', ( #195, #409, #747, #225 ) ) ;
#598 = DIRECTION ( 'NONE',  ( 0.000000000000000000, 0.7071067811865510144, -0.7071067811865440200 ) ) ;
#599 = VECTOR ( 'NONE', #67, 1000.000000000000000 ) ;
#600 = SURFACE_STYLE_FILL_AREA ( #163 ) ;
#601 = DIRECTION ( 'NONE',  ( 0.000000000000000000, 0.7071067811865510144, -0.7071067811865440200 ) ) ;
#602 = LINE ( 'NONE', #736, #36 ) ;
#603 = AXIS2_PLACEMENT_3D ( 'NONE', #558, #369, #663 ) ;
#604 = ORIENTED_EDGE ( 'NONE', *, *, #342, .T. ) ;
#605 = EDGE_CURVE ( 'NONE', #801, #500, #150, .T. ) ;
#606 = CARTESIAN_POINT ( 'NONE',  ( -28.84999999999999787, 34.96643032967499209, -37.79485745442079292 ) ) ;
#607 = VERTEX_POINT ( 'NONE', #503 ) ;
#608 = EDGE_LOOP ( 'NONE', ( #224, #548, #173, #391, #649, #569, #440, #352 ) ) ;
#609 = CARTESIAN_POINT ( 'NONE',  ( 0.000000000000000000, 0.000000000000000000, 0.000000000000000000 ) ) ;
#610 = FACE_OUTER_BOUND ( 'NONE', #301, .T. ) ;
#611 =( NAMED_UNIT ( * ) PLANE_ANGLE_UNIT ( ) SI_UNIT ( $, .RADIAN. ) );
#612 = DIRECTION ( 'NONE',  ( 1.000000000000000000, 1.962615573354727278E-16, -1.962615573354708543E-16 ) ) ;
#613 = DIRECTION ( 'NONE',  ( 0.000000000000000000, -0.7071067811865507924, 0.7071067811865441310 ) ) ;
#614 = DIRECTION ( 'NONE',  ( -1.962615573354727278E-16, 1.000000000000000000, 0.000000000000000000 ) ) ;
#615 = ORIENTED_EDGE ( 'NONE', *, *, #53, .T. ) ;
#616 = SURFACE_SIDE_STYLE ('',( #600 ) ) ;
#617 = CARTESIAN_POINT ( 'NONE',  ( -36.35000000000000853, 35.00178566873431407, -37.83021279348010779 ) ) ;
#618 = CIRCLE ( 'NONE', #85, 2.600000000000023181 ) ;
#619 = DIRECTION ( 'NONE',  ( 0.000000000000000000, 0.000000000000000000, -1.000000000000000000 ) ) ;
#620 = CARTESIAN_POINT ( 'NONE',  ( -29.44999999999999929, 9.121677477306523230, -10.53589103967948404 ) ) ;
#621 = ORIENTED_EDGE ( 'NONE', *, *, #565, .F. ) ;
#622 = ORIENTED_EDGE ( 'NONE', *, *, #483, .T. ) ;
#623 = EDGE_LOOP ( 'NONE', ( #113, #795, #468, #677, #604, #425, #748, #772 ) ) ;
#624 = CARTESIAN_POINT ( 'NONE',  ( -26.84999999999999432, 7.742819253992764494, -9.157032816365736849 ) ) ;
#625 = PLANE ( 'NONE',  #143 ) ;
#626 = AXIS2_PLACEMENT_3D ( 'NONE', #309, #239, #172 ) ;
#627 = VECTOR ( 'NONE', #662, 1000.000000000000000 ) ;
#628 =( GEOMETRIC_REPRESENTATION_CONTEXT ( 3 ) GLOBAL_UNCERTAINTY_ASSIGNED_CONTEXT ( ( #93 ) ) GLOBAL_UNIT_ASSIGNED_CONTEXT ( ( #671, #611, #232 ) ) REPRESENTATION_CONTEXT ( 'NONE', 'WORKASPACE' ) );
#629 = DIRECTION ( 'NONE',  ( 0.000000000000000000, 0.7071067811865510144, -0.7071067811865441310 ) ) ;
#630 =( NAMED_UNIT ( * ) PLANE_ANGLE_UNIT ( ) SI_UNIT ( $, .RADIAN. ) );
#631 = EDGE_CURVE ( 'NONE', #633, #702, #774, .T. ) ;
#632 = ADVANCED_FACE ( 'NONE', ( #610 ), #6, .F. ) ;
#633 = VERTEX_POINT ( 'NONE', #399 ) ;
#634 = DIRECTION ( 'NONE',  ( -0.000000000000000000, -0.7071067811865441310, -0.7071067811865510144 ) ) ;
#635 = ADVANCED_BREP_SHAPE_REPRESENTATION ( 'lens', ( #111, #204 ), #428 ) ;
#636 = ADVANCED_FACE ( 'NONE', ( #278 ), #357, .T. ) ;
#637 = CYLINDRICAL_SURFACE ( 'NONE', #776, 1.999999999999997780 ) ;
#638 = DIRECTION ( 'NONE',  ( 1.000000000000000000, 0.000000000000000000, -0.000000000000000000 ) ) ;
#639 = EDGE_LOOP ( 'NONE', ( #529, #731, #187, #450 ) ) ;
#640 = EDGE_CURVE ( 'NONE', #633, #197, #488, .T. ) ;
#641 = VERTEX_POINT ( 'NONE', #75 ) ;
#642 = CARTESIAN_POINT ( 'NONE',  ( -26.84999999999999787, 37.08775067323463759, -38.50196423560732484 ) ) ;
#643 = LINE ( 'NONE', #211, #807 ) ;
#644 = DIRECTION ( 'NONE',  ( 1.000000000000000000, 1.304930567390111708E-16, -1.304930567390099135E-16 ) ) ;
#645 = FACE_OUTER_BOUND ( 'NONE', #767, .T. ) ;
#646 = ORIENTED_EDGE ( 'NONE', *, *, #26, .F. ) ;
#647 = CARTESIAN_POINT ( 'NONE',  ( -36.35000000000000142, 9.121677477306535664, -10.53589103967949647 ) ) ;
#648 = ORIENTED_EDGE ( 'NONE', *, *, #199, .F. ) ;
#649 = ORIENTED_EDGE ( 'NONE', *, *, #137, .T. ) ;
#650 = LINE ( 'NONE', #467, #518 ) ;
#651 = CIRCLE ( 'NONE', #366, 5.949999999999999289 ) ;
#652 = PLANE ( 'NONE',  #64 ) ;
#653 = ORIENTED_EDGE ( 'NONE', *, *, #640, .T. ) ;
#654 = VERTEX_POINT ( 'NONE', #764 ) ;
#655 = CARTESIAN_POINT ( 'NONE',  ( 28.84999999999999432, 9.157032816365866523, -10.57124637873882556 ) ) ;
#656 = CARTESIAN_POINT ( 'NONE',  ( 30.39999999999999858, 35.70889244992085310, -37.12310601229355456 ) ) ;
#657 = LINE ( 'NONE', #532, #378 ) ;
#658 = FACE_OUTER_BOUND ( 'NONE', #559, .T. ) ;
#659 = VECTOR ( 'NONE', #115, 1000.000000000000000 ) ;
#660 = DIRECTION ( 'NONE',  ( -1.000000000000000000, 0.000000000000000000, 0.000000000000000000 ) ) ;
#661 = AXIS2_PLACEMENT_3D ( 'NONE', #141, #759, #196 ) ;
#662 = DIRECTION ( 'NONE',  ( -1.000000000000000000, 0.000000000000000000, 0.000000000000000000 ) ) ;
#663 = DIRECTION ( 'NONE',  ( 0.000000000000000000, 0.7071067811865505703, -0.7071067811865444641 ) ) ;
#664 = EDGE_CURVE ( 'NONE', #725, #61, #192, .T. ) ;
#665 = ORIENTED_EDGE ( 'NONE', *, *, #109, .F. ) ;
#666 = CARTESIAN_POINT ( 'NONE',  ( -26.84999999999999432, 7.318555185280828823, -9.581296885077675185 ) ) ;
#667 = ORIENTED_EDGE ( 'NONE', *, *, #371, .T. ) ;
#668 = VECTOR ( 'NONE', #324, 1000.000000000000000 ) ;
#669 = DIRECTION ( 'NONE',  ( 0.000000000000000000, -0.7071067811865501263, 0.7071067811865449082 ) ) ;
#670 = FACE_OUTER_BOUND ( 'NONE', #552, .T. ) ;
#671 =( LENGTH_UNIT ( ) NAMED_UNIT ( * ) SI_UNIT ( .MILLI., .METRE. ) );
#672 = CARTESIAN_POINT ( 'NONE',  ( 30.39999999999999858, 39.91617779798083632, -41.33039136035349514 ) ) ;
#673 = ORIENTED_EDGE ( 'NONE', *, *, #292, .F. ) ;
#674 = FILL_AREA_STYLE_COLOUR ( '', #18 ) ;
#675 = EDGE_LOOP ( 'NONE', ( #690, #485, #49, #138 ) ) ;
#676 = EDGE_CURVE ( 'NONE', #182, #702, #506, .T. ) ;
#677 = ORIENTED_EDGE ( 'NONE', *, *, #605, .T. ) ;
#678 = CARTESIAN_POINT ( 'NONE',  ( -28.85000000000000497, 34.96643032967499209, -37.79485745442079292 ) ) ;
#679 = LINE ( 'NONE', #383, #98 ) ;
#680 = VECTOR ( 'NONE', #458, 1000.000000000000000 ) ;
#681 = CARTESIAN_POINT ( 'NONE',  ( 30.39999999999999858, 7.318555185280821718, -8.732768747653798513 ) ) ;
#682 = FACE_OUTER_BOUND ( 'NONE', #714, .T. ) ;
#683 = ORIENTED_EDGE ( 'NONE', *, *, #245, .T. ) ;
#684 = CARTESIAN_POINT ( 'NONE',  ( 30.39999999999999858, 9.121677477306535664, -10.53589103967949647 ) ) ;
#685 = CARTESIAN_POINT ( 'NONE',  ( 26.84999999999998721, 36.38064389204809146, -39.20907101679387807 ) ) ;
#686 = ORIENTED_EDGE ( 'NONE', *, *, #53, .F. ) ;
#687 = ORIENTED_EDGE ( 'NONE', *, *, #245, .F. ) ;
#688 = CARTESIAN_POINT ( 'NONE',  ( -26.84999999999999432, 7.318555185280828823, -9.581296885077675185 ) ) ;
#689 = DIRECTION ( 'NONE',  ( 9.251858538542967883E-17, -0.7071067811865510144, 0.7071067811865441310 ) ) ;
#690 = ORIENTED_EDGE ( 'NONE', *, *, #472, .F. ) ;
#691 = AXIS2_PLACEMENT_3D ( 'NONE', #536, #151, #419 ) ;
#692 = CARTESIAN_POINT ( 'NONE',  ( 26.84999999999998721, 37.08775067323463759, -38.50196423560732484 ) ) ;
#693 = CARTESIAN_POINT ( 'NONE',  ( -30.39999999999999858, 8.414570696119993087, -11.24299782086604615 ) ) ;
#694 = FACE_OUTER_BOUND ( 'NONE', #584, .T. ) ;
#695 = ADVANCED_FACE ( 'NONE', ( #670, #181 ), #335, .F. ) ;
#696 = DIRECTION ( 'NONE',  ( -1.000000000000000000, 0.000000000000000000, 0.000000000000000000 ) ) ;
#697 = CARTESIAN_POINT ( 'NONE',  ( 36.35000000000000142, 8.414570696119993087, -11.24299782086604615 ) ) ;
#698 = EDGE_LOOP ( 'NONE', ( #240, #477, #745, #202 ) ) ;
#699 = DIRECTION ( 'NONE',  ( -0.000000000000000000, -0.7071067811865441310, -0.7071067811865510144 ) ) ;
#700 = ORIENTED_EDGE ( 'NONE', *, *, #444, .T. ) ;
#701 = CARTESIAN_POINT ( 'NONE',  ( -29.45000000000001705, 35.67353711086153822, -37.08775067323423968 ) ) ;
#702 = VERTEX_POINT ( 'NONE', #397 ) ;
#703 = LINE ( 'NONE', #180, #44 ) ;
#704 = ORIENTED_EDGE ( 'NONE', *, *, #205, .T. ) ;
#705 = VECTOR ( 'NONE', #696, 1000.000000000000000 ) ;
#706 = LINE ( 'NONE', #617, #160 ) ;
#707 = VERTEX_POINT ( 'NONE', #566 ) ;
#708 = CARTESIAN_POINT ( 'NONE',  ( -30.39999999999999858, 35.00178566873431407, -37.83021279348010779 ) ) ;
#709 = MECHANICAL_DESIGN_GEOMETRIC_PRESENTATION_REPRESENTATION (  '', ( #765 ), #382 ) ;
#710 = AXIS2_PLACEMENT_3D ( 'NONE', #2, #568, #247 ) ;
#711 = ORIENTED_EDGE ( 'NONE', *, *, #90, .T. ) ;
#712 = DIRECTION ( 'NONE',  ( -0.7071067811865421326, 0.5000000000000017764, 0.5000000000000058842 ) ) ;
#713 = AXIS2_PLACEMENT_3D ( 'NONE', #684, #454, #629 ) ;
#714 = EDGE_LOOP ( 'NONE', ( #421, #59, #265, #288 ) ) ;
#715 = DIRECTION ( 'NONE',  ( 6.542051911182424672E-17, -1.000000000000000000, 0.000000000000000000 ) ) ;
#716 = LINE ( 'NONE', #58, #441 ) ;
#717 = EDGE_CURVE ( 'NONE', #702, #654, #105, .T. ) ;
#718 = VECTOR ( 'NONE', #86, 1000.000000000000000 ) ;
#719 = DIRECTION ( 'NONE',  ( -1.000000000000000000, -6.542051911182424672E-17, 6.542051911182361810E-17 ) ) ;
#720 = VERTEX_POINT ( 'NONE', #791 ) ;
#721 = ORIENTED_EDGE ( 'NONE', *, *, #595, .F. ) ;
#722 = ORIENTED_EDGE ( 'NONE', *, *, #462, .T. ) ;
#723 = AXIS2_PLACEMENT_3D ( 'NONE', #794, #619, #490 ) ;
#724 = FACE_OUTER_BOUND ( 'NONE', #209, .T. ) ;
#725 = VERTEX_POINT ( 'NONE', #166 ) ;
#726 = MECHANICAL_DESIGN_GEOMETRIC_PRESENTATION_REPRESENTATION (  '', ( #590 ), #628 ) ;
#727 = DIRECTION ( 'NONE',  ( 0.000000000000000000, 0.7071067811865510144, -0.7071067811865441310 ) ) ;
#728 = EDGE_LOOP ( 'NONE', ( #779, #551, #62, #275 ) ) ;
#729 = CARTESIAN_POINT ( 'NONE',  ( 26.84999999999998721, 35.67353711086153822, -37.08775067323423968 ) ) ;
#730 = VERTEX_POINT ( 'NONE', #361 ) ;
#731 = ORIENTED_EDGE ( 'NONE', *, *, #38, .F. ) ;
#732 = FILL_AREA_STYLE_COLOUR ( '', #743 ) ;
#733 = CIRCLE ( 'NONE', #303, 2.600000000000016076 ) ;
#734 = FACE_OUTER_BOUND ( 'NONE', #760, .T. ) ;
#735 = CARTESIAN_POINT ( 'NONE',  ( 30.39999999999999858, 39.91617779798084342, -41.33039136035350225 ) ) ;
#736 = CARTESIAN_POINT ( 'NONE',  ( -30.39999999999999858, 39.91617779798084342, -41.33039136035350225 ) ) ;
#737 = AXIS2_PLACEMENT_3D ( 'NONE', #97, #783, #30 ) ;
#738 = DIRECTION ( 'NONE',  ( 0.000000000000000000, 0.7071067811865446862, 0.7071067811865504593 ) ) ;
#739 = DIRECTION ( 'NONE',  ( 1.000000000000000000, 0.000000000000000000, 0.000000000000000000 ) ) ;
#740 = EDGE_LOOP ( 'NONE', ( #367, #648, #484, #469 ) ) ;
#741 = DIRECTION ( 'NONE',  ( -0.000000000000000000, -0.7071067811865441310, -0.7071067811865510144 ) ) ;
#742 = FACE_OUTER_BOUND ( 'NONE', #639, .T. ) ;
#743 = COLOUR_RGB ( '',0.7921568627450980005, 0.8196078431372548767, 0.9333333333333333481 ) ;
#744 = DIRECTION ( 'NONE',  ( -9.251858538542967883E-17, 0.7071067811865510144, -0.7071067811865441310 ) ) ;
#745 = ORIENTED_EDGE ( 'NONE', *, *, #525, .T. ) ;
#746 = CARTESIAN_POINT ( 'NONE',  ( 26.84999999999998721, 34.96643032967499209, -37.79485745442079292 ) ) ;
#747 = ORIENTED_EDGE ( 'NONE', *, *, #251, .T. ) ;
#748 = ORIENTED_EDGE ( 'NONE', *, *, #39, .T. ) ;
#749 = AXIS2_PLACEMENT_3D ( 'NONE', #693, #515, #379 ) ;
#750 = AXIS2_PLACEMENT_3D ( 'NONE', #334, #763, #403 ) ;
#751 = CARTESIAN_POINT ( 'NONE',  ( 30.39999999999999858, 4.207285348060016972, -7.035712472806111784 ) ) ;
#752 = VECTOR ( 'NONE', #634, 1000.000000000000000 ) ;
#753 = ADVANCED_FACE ( 'NONE', ( #349 ), #782, .F. ) ;
#754 = CIRCLE ( 'NONE', #5, 5.949999999999999289 ) ;
#755 = DIRECTION ( 'NONE',  ( 1.000000000000000000, -0.000000000000000000, 0.000000000000000000 ) ) ;
#756 = CARTESIAN_POINT ( 'NONE',  ( -28.85000000000000497, 35.24927304214960344, -37.51201474194618868 ) ) ;
#757 = EDGE_CURVE ( 'NONE', #333, #83, #170, .T. ) ;
#758 = DIRECTION ( 'NONE',  ( -0.000000000000000000, -0.7071067811865441310, -0.7071067811865510144 ) ) ;
#759 = DIRECTION ( 'NONE',  ( -0.000000000000000000, -0.7071067811865441310, -0.7071067811865510144 ) ) ;
#760 = EDGE_LOOP ( 'NONE', ( #91, #175, #686, #646 ) ) ;
#761 = LINE ( 'NONE', #188, #781 ) ;
#762 = VERTEX_POINT ( 'NONE', #437 ) ;
#763 = DIRECTION ( 'NONE',  ( 0.000000000000000000, 0.7071067811865441310, 0.7071067811865510144 ) ) ;
#764 = CARTESIAN_POINT ( 'NONE',  ( -28.84999999999999787, 35.24927304214960344, -37.51201474194618157 ) ) ;
#765 = STYLED_ITEM ( 'NONE', ( #8 ), #111 ) ;
#766 = ORIENTED_EDGE ( 'NONE', *, *, #127, .F. ) ;
#767 = EDGE_LOOP ( 'NONE', ( #273, #687, #418, #226 ) ) ;
#768 = PLANE ( 'NONE',  #457 ) ;
#769 = PRODUCT_DEFINITION ( 'Î´Öª', '', #294, #582 ) ;
#770 = VERTEX_POINT ( 'NONE', #112 ) ;
#771 = CARTESIAN_POINT ( 'NONE',  ( 30.39999999999999858, 4.914392129246561325, -6.328605691619560325 ) ) ;
#772 = ORIENTED_EDGE ( 'NONE', *, *, #588, .T. ) ;
#773 = ADVANCED_FACE ( 'NONE', ( #520 ), #306, .F. ) ;
#774 = LINE ( 'NONE', #577, #705 ) ;
#775 = DIRECTION ( 'NONE',  ( 0.000000000000000000, 0.7071067811865441310, 0.7071067811865510144 ) ) ;
#776 = AXIS2_PLACEMENT_3D ( 'NONE', #343, #482, #598 ) ;
#777 = CARTESIAN_POINT ( 'NONE',  ( 26.84999999999999787, 7.318555185280828823, -9.581296885077675185 ) ) ;
#778 = UNCERTAINTY_MEASURE_WITH_UNIT (LENGTH_MEASURE( 1.000000000000000082E-05 ), #126, 'distance_accuracy_value', 'NONE');
#779 = ORIENTED_EDGE ( 'NONE', *, *, #100, .T. ) ;
#780 = CARTESIAN_POINT ( 'NONE',  ( -26.84999999999999787, 37.08775067323463759, -38.50196423560732484 ) ) ;
#781 = VECTOR ( 'NONE', #453, 1000.000000000000000 ) ;
#782 = CONICAL_SURFACE ( 'NONE', #790, 2.000000000000000444, 0.7853981633974522758 ) ;
#783 = DIRECTION ( 'NONE',  ( -1.000000000000000000, 0.000000000000000000, 0.000000000000000000 ) ) ;
#784 = CARTESIAN_POINT ( 'NONE',  ( -26.84999999999999787, 35.67353711086153822, -37.08775067323423968 ) ) ;
#785 = EDGE_LOOP ( 'NONE', ( #217, #523, #673, #289 ) ) ;
#786 = ORIENTED_EDGE ( 'NONE', *, *, #792, .T. ) ;
#787 = DIRECTION ( 'NONE',  ( 0.000000000000000000, 0.7071067811865441310, 0.7071067811865510144 ) ) ;
#788 = PRESENTATION_LAYER_ASSIGNMENT (  '', '', ( #765 ) ) ;
#789 = VECTOR ( 'NONE', #660, 1000.000000000000000 ) ;
#790 = AXIS2_PLACEMENT_3D ( 'NONE', #227, #738, #669 ) ;
#791 = CARTESIAN_POINT ( 'NONE',  ( -30.39999999999999858, 39.91617779798084342, -41.33039136035350225 ) ) ;
#792 = EDGE_CURVE ( 'NONE', #88, #720, #330, .T. ) ;
#793 = CARTESIAN_POINT ( 'NONE',  ( 30.39999999999999858, 9.121677477306535664, -10.53589103967949647 ) ) ;
#794 = CARTESIAN_POINT ( 'NONE',  ( -26.84999999999999787, 36.66348660452269570, -38.92622830431926673 ) ) ;
#795 = ORIENTED_EDGE ( 'NONE', *, *, #20, .T. ) ;
#796 = LINE ( 'NONE', #194, #411 ) ;
#797 = FACE_OUTER_BOUND ( 'NONE', #116, .T. ) ;
#798 = APPLICATION_PROTOCOL_DEFINITION ( 'draft international standard', 'automotive_design', 1998, #373 ) ;
#799 = DIRECTION ( 'NONE',  ( -1.000000000000000000, 0.000000000000000000, 0.000000000000000000 ) ) ;
#800 = FILL_AREA_STYLE ('',( #674 ) ) ;
#801 = VERTEX_POINT ( 'NONE', #606 ) ;
#802 = ORIENTED_EDGE ( 'NONE', *, *, #292, .T. ) ;
#803 = EDGE_CURVE ( 'NONE', #114, #762, #651, .T. ) ;
#804 = DIRECTION ( 'NONE',  ( 0.000000000000000000, 0.7071067811865417996, 0.7071067811865533459 ) ) ;
#805 = DIRECTION ( 'NONE',  ( 0.000000000000000000, 0.7071067811865441310, 0.7071067811865509034 ) ) ;
#806 = PRODUCT_RELATED_PRODUCT_CATEGORY ( 'part', '', ( #390 ) ) ;
#807 = VECTOR ( 'NONE', #22, 1000.000000000000000 ) ;
#808 = EDGE_CURVE ( 'NONE', #293, #182, #618, .T. ) ;
#809 = DIRECTION ( 'NONE',  ( 0.000000000000000000, -0.7071067811865510144, 0.7071067811865440200 ) ) ;
#810 = DIRECTION ( 'NONE',  ( -0.7071067811865425767, -0.5000000000000034417, -0.5000000000000034417 ) ) ;
#811 = VECTOR ( 'NONE', #475, 1000.000000000000000 ) ;
#812 = FACE_OUTER_BOUND ( 'NONE', #597, .T. ) ;
#813 = CARTESIAN_POINT ( 'NONE',  ( -30.39999999999999858, 4.207285348060016972, -7.035712472806111784 ) ) ;
#814 = SURFACE_SIDE_STYLE ('',( #589 ) ) ;
ENDSEC;
END-ISO-10303-21;
